<mxfile host="Electron" modified="2024-10-05T14:46:18.021Z" agent="Mozilla/5.0 (X11; Linux x86_64) AppleWebKit/537.36 (KHTML, like Gecko) draw.io/21.6.5 Chrome/114.0.5735.243 Electron/25.3.1 Safari/537.36" etag="CcNDpRuC3OF3te5PhKZC" version="21.6.5" type="device" pages="4">
  <diagram name="simple-planetary" id="GeYh5CG_ZE7DcgVP3h_T">
    <mxGraphModel dx="1149" dy="474" grid="1" gridSize="10" guides="1" tooltips="1" connect="1" arrows="1" fold="1" page="1" pageScale="1" pageWidth="413" pageHeight="291" math="1" shadow="0">
      <root>
        <mxCell id="1bJDtHFlT__3EoRjm6zf-0" />
        <mxCell id="1bJDtHFlT__3EoRjm6zf-1" parent="1bJDtHFlT__3EoRjm6zf-0" />
        <mxCell id="1bJDtHFlT__3EoRjm6zf-10" value="" style="ellipse;whiteSpace=wrap;html=1;aspect=fixed;fillColor=none;labelBackgroundColor=none;strokeColor=default;" parent="1bJDtHFlT__3EoRjm6zf-1" vertex="1">
          <mxGeometry x="50" y="50" width="180" height="180" as="geometry" />
        </mxCell>
        <mxCell id="1bJDtHFlT__3EoRjm6zf-2" value="" style="ellipse;whiteSpace=wrap;html=1;aspect=fixed;strokeColor=#808080;container=0;fillColor=default;" parent="1bJDtHFlT__3EoRjm6zf-1" vertex="1">
          <mxGeometry x="80" y="60" width="50" height="50" as="geometry" />
        </mxCell>
        <mxCell id="1bJDtHFlT__3EoRjm6zf-8" value="" style="ellipse;whiteSpace=wrap;html=1;aspect=fixed;strokeColor=#808080;fontColor=none;noLabel=1;fillColor=default;" parent="1bJDtHFlT__3EoRjm6zf-1" vertex="1">
          <mxGeometry x="180" y="115" width="50" height="50" as="geometry" />
        </mxCell>
        <mxCell id="1bJDtHFlT__3EoRjm6zf-11" value="" style="ellipse;whiteSpace=wrap;html=1;aspect=fixed;fillColor=none;strokeColor=#B3FF66;" parent="1bJDtHFlT__3EoRjm6zf-1" vertex="1">
          <mxGeometry x="100" y="100" width="80" height="80" as="geometry" />
        </mxCell>
        <mxCell id="1bJDtHFlT__3EoRjm6zf-12" value="" style="endArrow=classic;html=1;rounded=0;entryX=1;entryY=0.5;entryDx=0;entryDy=0;strokeColor=#808080;" parent="1bJDtHFlT__3EoRjm6zf-1" source="1bJDtHFlT__3EoRjm6zf-15" target="1bJDtHFlT__3EoRjm6zf-10" edge="1">
          <mxGeometry width="50" height="50" relative="1" as="geometry">
            <mxPoint x="280" y="140" as="sourcePoint" />
            <mxPoint x="240" y="120" as="targetPoint" />
          </mxGeometry>
        </mxCell>
        <mxCell id="1bJDtHFlT__3EoRjm6zf-13" value="" style="endArrow=classic;html=1;rounded=0;entryX=0.798;entryY=0.107;entryDx=0;entryDy=0;entryPerimeter=0;exitX=-0.018;exitY=0.439;exitDx=0;exitDy=0;exitPerimeter=0;strokeColor=#B3FF66;" parent="1bJDtHFlT__3EoRjm6zf-1" source="1bJDtHFlT__3EoRjm6zf-16" target="1bJDtHFlT__3EoRjm6zf-11" edge="1">
          <mxGeometry width="50" height="50" relative="1" as="geometry">
            <mxPoint x="190" y="20" as="sourcePoint" />
            <mxPoint x="240" y="120" as="targetPoint" />
          </mxGeometry>
        </mxCell>
        <mxCell id="1bJDtHFlT__3EoRjm6zf-14" value="" style="endArrow=classic;html=1;rounded=0;entryX=0;entryY=0.5;entryDx=0;entryDy=0;" parent="1bJDtHFlT__3EoRjm6zf-1" source="1bJDtHFlT__3EoRjm6zf-17" target="1bJDtHFlT__3EoRjm6zf-10" edge="1">
          <mxGeometry width="50" height="50" relative="1" as="geometry">
            <mxPoint x="200" y="270" as="sourcePoint" />
            <mxPoint x="198" y="129" as="targetPoint" />
          </mxGeometry>
        </mxCell>
        <mxCell id="1bJDtHFlT__3EoRjm6zf-15" value="planet $$\theta_p, r_p, z_p$$" style="text;html=1;strokeColor=none;fillColor=none;align=center;verticalAlign=middle;whiteSpace=wrap;rounded=0;fontColor=#808080;" parent="1bJDtHFlT__3EoRjm6zf-1" vertex="1">
          <mxGeometry x="280" y="112.5" width="61" height="55" as="geometry" />
        </mxCell>
        <mxCell id="1bJDtHFlT__3EoRjm6zf-16" value="IN: sun $$\theta_s, r_s, z_s$$" style="text;html=1;strokeColor=none;fillColor=none;align=center;verticalAlign=middle;whiteSpace=wrap;rounded=0;fontColor=#B3FF66;" parent="1bJDtHFlT__3EoRjm6zf-1" vertex="1">
          <mxGeometry x="220" y="18" width="64" height="55" as="geometry" />
        </mxCell>
        <mxCell id="1bJDtHFlT__3EoRjm6zf-17" value="crown $$\theta_e, r_e, z_e$$" style="text;html=1;strokeColor=none;fillColor=none;align=center;verticalAlign=middle;whiteSpace=wrap;rounded=0;" parent="1bJDtHFlT__3EoRjm6zf-1" vertex="1">
          <mxGeometry x="-50" y="112.5" width="63" height="55" as="geometry" />
        </mxCell>
        <mxCell id="HTVDREHTvJ7nC8nJMKoo-0" value="" style="ellipse;whiteSpace=wrap;html=1;aspect=fixed;strokeColor=#808080;container=0;fillColor=default;" parent="1bJDtHFlT__3EoRjm6zf-1" vertex="1">
          <mxGeometry x="80" y="170" width="50" height="50" as="geometry" />
        </mxCell>
        <mxCell id="HTVDREHTvJ7nC8nJMKoo-1" value="" style="ellipse;whiteSpace=wrap;html=1;aspect=fixed;fillColor=none;strokeColor=#B3FF66;" parent="1bJDtHFlT__3EoRjm6zf-1" vertex="1">
          <mxGeometry x="75" y="75" width="130" height="130" as="geometry" />
        </mxCell>
        <mxCell id="HTVDREHTvJ7nC8nJMKoo-2" value="" style="ellipse;whiteSpace=wrap;html=1;aspect=fixed;strokeColor=#B3FF66;" parent="1bJDtHFlT__3EoRjm6zf-1" vertex="1">
          <mxGeometry x="99" y="79" width="12" height="12" as="geometry" />
        </mxCell>
        <mxCell id="HTVDREHTvJ7nC8nJMKoo-3" value="" style="ellipse;whiteSpace=wrap;html=1;aspect=fixed;strokeColor=#B3FF66;" parent="1bJDtHFlT__3EoRjm6zf-1" vertex="1">
          <mxGeometry x="99" y="189" width="12" height="12" as="geometry" />
        </mxCell>
        <mxCell id="HTVDREHTvJ7nC8nJMKoo-4" value="" style="ellipse;whiteSpace=wrap;html=1;aspect=fixed;strokeColor=#B3FF66;" parent="1bJDtHFlT__3EoRjm6zf-1" vertex="1">
          <mxGeometry x="199" y="134" width="12" height="12" as="geometry" />
        </mxCell>
        <mxCell id="HTVDREHTvJ7nC8nJMKoo-5" value="OUT: carrier $$\theta_c, r_c$$" style="text;html=1;strokeColor=none;fillColor=none;align=center;verticalAlign=middle;whiteSpace=wrap;rounded=0;fontColor=#B3FF66;" parent="1bJDtHFlT__3EoRjm6zf-1" vertex="1">
          <mxGeometry x="217" y="211" width="70" height="55" as="geometry" />
        </mxCell>
        <mxCell id="xPpuckSSEfRJx7kLZ063-0" value="" style="endArrow=classic;html=1;rounded=0;entryX=1;entryY=1;entryDx=0;entryDy=0;strokeColor=#B3FF66;" parent="1bJDtHFlT__3EoRjm6zf-1" source="HTVDREHTvJ7nC8nJMKoo-5" target="HTVDREHTvJ7nC8nJMKoo-1" edge="1">
          <mxGeometry width="50" height="50" relative="1" as="geometry">
            <mxPoint x="290" y="150" as="sourcePoint" />
            <mxPoint x="240" y="150" as="targetPoint" />
          </mxGeometry>
        </mxCell>
        <mxCell id="04STmT6GEoHSKRfqKHrO-0" value="" style="endArrow=none;html=1;rounded=0;exitX=0.5;exitY=1;exitDx=0;exitDy=0;" parent="1bJDtHFlT__3EoRjm6zf-1" source="1bJDtHFlT__3EoRjm6zf-10" edge="1">
          <mxGeometry width="50" height="50" relative="1" as="geometry">
            <mxPoint x="130" y="170" as="sourcePoint" />
            <mxPoint x="140" y="250" as="targetPoint" />
          </mxGeometry>
        </mxCell>
        <mxCell id="04STmT6GEoHSKRfqKHrO-1" value="" style="endArrow=none;html=1;rounded=0;" parent="1bJDtHFlT__3EoRjm6zf-1" edge="1">
          <mxGeometry width="50" height="50" relative="1" as="geometry">
            <mxPoint x="110" y="250" as="sourcePoint" />
            <mxPoint x="170" y="250" as="targetPoint" />
          </mxGeometry>
        </mxCell>
      </root>
    </mxGraphModel>
  </diagram>
  <diagram name="divided-period" id="J3SGb8PF03ZZ7OEI4pmS">
    <mxGraphModel dx="1149" dy="765" grid="1" gridSize="10" guides="0" tooltips="1" connect="1" arrows="1" fold="1" page="1" pageScale="1" pageWidth="413" pageHeight="291" math="1" shadow="0">
      <root>
        <mxCell id="Y6DNGQsO6_golUhKxMkS-0" />
        <mxCell id="Y6DNGQsO6_golUhKxMkS-1" parent="Y6DNGQsO6_golUhKxMkS-0" />
        <mxCell id="vlBiqz0PMQXGafFDKJ97-14" value="" style="verticalLabelPosition=bottom;verticalAlign=top;html=1;shape=mxgraph.basic.arc;startAngle=0.06527379354431137;endAngle=0.24363719432600411;strokeColor=#808080;" parent="Y6DNGQsO6_golUhKxMkS-1" vertex="1">
          <mxGeometry x="10" y="10" width="260" height="260" as="geometry" />
        </mxCell>
        <mxCell id="vlBiqz0PMQXGafFDKJ97-9" value="" style="verticalLabelPosition=bottom;verticalAlign=top;html=1;shape=mxgraph.basic.arc;startAngle=0.9243468147241597;endAngle=0.24363719432600411;strokeColor=#808080;" parent="Y6DNGQsO6_golUhKxMkS-1" vertex="1">
          <mxGeometry x="20" y="20" width="240" height="240" as="geometry" />
        </mxCell>
        <mxCell id="vlBiqz0PMQXGafFDKJ97-0" value="" style="ellipse;whiteSpace=wrap;html=1;aspect=fixed;strokeColor=#808080;container=0;" parent="Y6DNGQsO6_golUhKxMkS-1" vertex="1">
          <mxGeometry x="139" y="55" width="50" height="50" as="geometry" />
        </mxCell>
        <mxCell id="vlBiqz0PMQXGafFDKJ97-1" value="" style="ellipse;whiteSpace=wrap;html=1;aspect=fixed;strokeColor=#808080;container=0;rotation=-180;" parent="Y6DNGQsO6_golUhKxMkS-1" vertex="1">
          <mxGeometry x="147" y="172" width="50" height="50" as="geometry" />
        </mxCell>
        <mxCell id="vlBiqz0PMQXGafFDKJ97-2" value="" style="ellipse;whiteSpace=wrap;html=1;aspect=fixed;strokeColor=#808080;fontColor=none;noLabel=1;rotation=-180;" parent="Y6DNGQsO6_golUhKxMkS-1" vertex="1">
          <mxGeometry x="50" y="115" width="50" height="50" as="geometry" />
        </mxCell>
        <mxCell id="vlBiqz0PMQXGafFDKJ97-3" value="" style="ellipse;whiteSpace=wrap;html=1;aspect=fixed;strokeColor=#808080;container=0;rotation=-180;" parent="Y6DNGQsO6_golUhKxMkS-1" vertex="1">
          <mxGeometry x="91" y="175" width="50" height="50" as="geometry" />
        </mxCell>
        <mxCell id="Y6DNGQsO6_golUhKxMkS-2" value="" style="ellipse;whiteSpace=wrap;html=1;aspect=fixed;fillColor=none;" parent="Y6DNGQsO6_golUhKxMkS-1" vertex="1">
          <mxGeometry x="50" y="50" width="180" height="180" as="geometry" />
        </mxCell>
        <mxCell id="Y6DNGQsO6_golUhKxMkS-3" value="" style="ellipse;whiteSpace=wrap;html=1;aspect=fixed;strokeColor=#808080;container=0;" parent="Y6DNGQsO6_golUhKxMkS-1" vertex="1">
          <mxGeometry x="83" y="58" width="50" height="50" as="geometry" />
        </mxCell>
        <mxCell id="Y6DNGQsO6_golUhKxMkS-4" value="" style="ellipse;whiteSpace=wrap;html=1;aspect=fixed;strokeColor=#808080;fontColor=none;noLabel=1;" parent="Y6DNGQsO6_golUhKxMkS-1" vertex="1">
          <mxGeometry x="180" y="115" width="50" height="50" as="geometry" />
        </mxCell>
        <mxCell id="Y6DNGQsO6_golUhKxMkS-5" value="" style="ellipse;whiteSpace=wrap;html=1;aspect=fixed;fillColor=none;strokeColor=#B3FF66;" parent="Y6DNGQsO6_golUhKxMkS-1" vertex="1">
          <mxGeometry x="100" y="100" width="80" height="80" as="geometry" />
        </mxCell>
        <mxCell id="Y6DNGQsO6_golUhKxMkS-13" value="" style="ellipse;whiteSpace=wrap;html=1;aspect=fixed;fillColor=none;strokeColor=#B3FF66;" parent="Y6DNGQsO6_golUhKxMkS-1" vertex="1">
          <mxGeometry x="75" y="75" width="130" height="130" as="geometry" />
        </mxCell>
        <mxCell id="Y6DNGQsO6_golUhKxMkS-14" value="" style="ellipse;whiteSpace=wrap;html=1;aspect=fixed;strokeColor=#B3FF66;" parent="Y6DNGQsO6_golUhKxMkS-1" vertex="1">
          <mxGeometry x="102" y="77" width="12" height="12" as="geometry" />
        </mxCell>
        <mxCell id="Y6DNGQsO6_golUhKxMkS-16" value="" style="ellipse;whiteSpace=wrap;html=1;aspect=fixed;strokeColor=#B3FF66;" parent="Y6DNGQsO6_golUhKxMkS-1" vertex="1">
          <mxGeometry x="199" y="134" width="12" height="12" as="geometry" />
        </mxCell>
        <mxCell id="vlBiqz0PMQXGafFDKJ97-5" value="" style="ellipse;whiteSpace=wrap;html=1;aspect=fixed;strokeColor=#B3FF66;" parent="Y6DNGQsO6_golUhKxMkS-1" vertex="1">
          <mxGeometry x="158" y="74" width="12" height="12" as="geometry" />
        </mxCell>
        <mxCell id="vlBiqz0PMQXGafFDKJ97-6" value="" style="ellipse;whiteSpace=wrap;html=1;aspect=fixed;strokeColor=#B3FF66;" parent="Y6DNGQsO6_golUhKxMkS-1" vertex="1">
          <mxGeometry x="69" y="134" width="12" height="12" as="geometry" />
        </mxCell>
        <mxCell id="vlBiqz0PMQXGafFDKJ97-7" value="" style="ellipse;whiteSpace=wrap;html=1;aspect=fixed;strokeColor=#B3FF66;" parent="Y6DNGQsO6_golUhKxMkS-1" vertex="1">
          <mxGeometry x="110" y="194" width="12" height="12" as="geometry" />
        </mxCell>
        <mxCell id="vlBiqz0PMQXGafFDKJ97-8" value="" style="ellipse;whiteSpace=wrap;html=1;aspect=fixed;strokeColor=#B3FF66;" parent="Y6DNGQsO6_golUhKxMkS-1" vertex="1">
          <mxGeometry x="166" y="191" width="12" height="12" as="geometry" />
        </mxCell>
        <mxCell id="vlBiqz0PMQXGafFDKJ97-12" value="$$\theta_1$$" style="text;html=1;strokeColor=none;fillColor=none;align=center;verticalAlign=middle;whiteSpace=wrap;rounded=0;" parent="Y6DNGQsO6_golUhKxMkS-1" vertex="1">
          <mxGeometry x="62" width="60" height="30" as="geometry" />
        </mxCell>
        <mxCell id="vlBiqz0PMQXGafFDKJ97-13" value="$$\theta_2$$" style="text;html=1;strokeColor=none;fillColor=none;align=center;verticalAlign=middle;whiteSpace=wrap;rounded=0;" parent="Y6DNGQsO6_golUhKxMkS-1" vertex="1">
          <mxGeometry x="181" y="-3" width="60" height="30" as="geometry" />
        </mxCell>
        <mxCell id="vlBiqz0PMQXGafFDKJ97-15" value="" style="endArrow=none;html=1;rounded=0;entryX=0.5;entryY=0.5;entryDx=0;entryDy=0;entryPerimeter=0;dashed=1;dashPattern=8 8;strokeColor=#808080;" parent="Y6DNGQsO6_golUhKxMkS-1" target="Y6DNGQsO6_golUhKxMkS-13" edge="1">
          <mxGeometry width="50" height="50" relative="1" as="geometry">
            <mxPoint x="58" y="-9" as="sourcePoint" />
            <mxPoint x="170" y="130" as="targetPoint" />
          </mxGeometry>
        </mxCell>
        <mxCell id="vlBiqz0PMQXGafFDKJ97-16" value="" style="endArrow=none;html=1;rounded=0;dashed=1;dashPattern=8 8;strokeColor=#808080;" parent="Y6DNGQsO6_golUhKxMkS-1" edge="1">
          <mxGeometry width="50" height="50" relative="1" as="geometry">
            <mxPoint x="201" y="-16" as="sourcePoint" />
            <mxPoint x="140" y="140" as="targetPoint" />
          </mxGeometry>
        </mxCell>
        <mxCell id="vlBiqz0PMQXGafFDKJ97-17" value="" style="endArrow=none;html=1;rounded=0;dashed=1;dashPattern=8 8;strokeColor=#808080;" parent="Y6DNGQsO6_golUhKxMkS-1" edge="1">
          <mxGeometry width="50" height="50" relative="1" as="geometry">
            <mxPoint x="290" y="141" as="sourcePoint" />
            <mxPoint x="140" y="141" as="targetPoint" />
          </mxGeometry>
        </mxCell>
        <mxCell id="vlBiqz0PMQXGafFDKJ97-18" value="0" style="text;html=1;strokeColor=none;fillColor=none;align=center;verticalAlign=middle;whiteSpace=wrap;rounded=0;" parent="Y6DNGQsO6_golUhKxMkS-1" vertex="1">
          <mxGeometry x="272" y="125" width="60" height="30" as="geometry" />
        </mxCell>
        <mxCell id="o8piUJfV3BaKfxfX5tkX-0" value="" style="verticalLabelPosition=bottom;verticalAlign=top;html=1;shape=mxgraph.basic.arc;startAngle=0.756915424783331;endAngle=0.24363719432600411;strokeColor=#808080;" parent="Y6DNGQsO6_golUhKxMkS-1" vertex="1">
          <mxGeometry x="30" y="30" width="220" height="220" as="geometry" />
        </mxCell>
        <mxCell id="o8piUJfV3BaKfxfX5tkX-1" value="" style="endArrow=none;html=1;rounded=0;dashed=1;dashPattern=8 8;strokeColor=#808080;" parent="Y6DNGQsO6_golUhKxMkS-1" edge="1">
          <mxGeometry width="50" height="50" relative="1" as="geometry">
            <mxPoint x="-20" y="140" as="sourcePoint" />
            <mxPoint x="140" y="140" as="targetPoint" />
          </mxGeometry>
        </mxCell>
        <mxCell id="o8piUJfV3BaKfxfX5tkX-2" value="$$\theta_0$$" style="text;html=1;strokeColor=none;fillColor=none;align=center;verticalAlign=middle;whiteSpace=wrap;rounded=0;" parent="Y6DNGQsO6_golUhKxMkS-1" vertex="1">
          <mxGeometry x="-10" y="110" width="60" height="30" as="geometry" />
        </mxCell>
      </root>
    </mxGraphModel>
  </diagram>
  <diagram name="compound-planetary" id="0emIH20pZjuTiBTqTuXO">
    <mxGraphModel dx="1149" dy="474" grid="1" gridSize="10" guides="1" tooltips="1" connect="1" arrows="1" fold="1" page="1" pageScale="1" pageWidth="413" pageHeight="291" math="1" shadow="0">
      <root>
        <mxCell id="QqgvHTSZ75dJSmDRe_ZE-0" />
        <mxCell id="QqgvHTSZ75dJSmDRe_ZE-1" parent="QqgvHTSZ75dJSmDRe_ZE-0" />
        <mxCell id="41hLN5MprZ3BEySFoWJy-0" value="" style="endArrow=none;html=1;rounded=0;exitX=0.5;exitY=1;exitDx=0;exitDy=0;strokeColor=#808080;" parent="QqgvHTSZ75dJSmDRe_ZE-1" edge="1">
          <mxGeometry width="50" height="50" relative="1" as="geometry">
            <mxPoint x="141.25" y="230" as="sourcePoint" />
            <mxPoint x="141.25" y="250" as="targetPoint" />
          </mxGeometry>
        </mxCell>
        <mxCell id="41hLN5MprZ3BEySFoWJy-1" value="" style="endArrow=none;html=1;rounded=0;strokeColor=#808080;" parent="QqgvHTSZ75dJSmDRe_ZE-1" edge="1">
          <mxGeometry width="50" height="50" relative="1" as="geometry">
            <mxPoint x="111.25" y="250" as="sourcePoint" />
            <mxPoint x="171.25" y="250" as="targetPoint" />
          </mxGeometry>
        </mxCell>
        <mxCell id="q3EgtY3hpRnF0Ry7mzBB-0" value="" style="ellipse;whiteSpace=wrap;html=1;aspect=fixed;fillColor=none;strokeColor=#B3FF66;" parent="QqgvHTSZ75dJSmDRe_ZE-1" vertex="1">
          <mxGeometry x="40" y="40" width="200" height="200" as="geometry" />
        </mxCell>
        <mxCell id="QqgvHTSZ75dJSmDRe_ZE-2" value="" style="ellipse;whiteSpace=wrap;html=1;aspect=fixed;fillColor=none;strokeColor=#808080;" parent="QqgvHTSZ75dJSmDRe_ZE-1" vertex="1">
          <mxGeometry x="50" y="50" width="180" height="180" as="geometry" />
        </mxCell>
        <mxCell id="QqgvHTSZ75dJSmDRe_ZE-3" value="" style="ellipse;whiteSpace=wrap;html=1;aspect=fixed;strokeColor=#808080;container=0;" parent="QqgvHTSZ75dJSmDRe_ZE-1" vertex="1">
          <mxGeometry x="80" y="60" width="50" height="50" as="geometry" />
        </mxCell>
        <mxCell id="QqgvHTSZ75dJSmDRe_ZE-4" value="" style="ellipse;whiteSpace=wrap;html=1;aspect=fixed;strokeColor=#808080;fontColor=none;noLabel=1;" parent="QqgvHTSZ75dJSmDRe_ZE-1" vertex="1">
          <mxGeometry x="180" y="115" width="50" height="50" as="geometry" />
        </mxCell>
        <mxCell id="QqgvHTSZ75dJSmDRe_ZE-5" value="" style="ellipse;whiteSpace=wrap;html=1;aspect=fixed;fillColor=none;strokeColor=#B3FF66;" parent="QqgvHTSZ75dJSmDRe_ZE-1" vertex="1">
          <mxGeometry x="100" y="100" width="80" height="80" as="geometry" />
        </mxCell>
        <mxCell id="QqgvHTSZ75dJSmDRe_ZE-6" value="" style="endArrow=classic;html=1;rounded=0;entryX=0.87;entryY=0.352;entryDx=0;entryDy=0;strokeColor=#808080;entryPerimeter=0;" parent="QqgvHTSZ75dJSmDRe_ZE-1" source="QqgvHTSZ75dJSmDRe_ZE-9" target="q3EgtY3hpRnF0Ry7mzBB-3" edge="1">
          <mxGeometry width="50" height="50" relative="1" as="geometry">
            <mxPoint x="280" y="140" as="sourcePoint" />
            <mxPoint x="240" y="120" as="targetPoint" />
          </mxGeometry>
        </mxCell>
        <mxCell id="QqgvHTSZ75dJSmDRe_ZE-7" value="" style="endArrow=classic;html=1;rounded=0;entryX=0.798;entryY=0.107;entryDx=0;entryDy=0;entryPerimeter=0;exitX=-0.018;exitY=0.439;exitDx=0;exitDy=0;exitPerimeter=0;strokeColor=#B3FF66;" parent="QqgvHTSZ75dJSmDRe_ZE-1" source="QqgvHTSZ75dJSmDRe_ZE-10" target="QqgvHTSZ75dJSmDRe_ZE-5" edge="1">
          <mxGeometry width="50" height="50" relative="1" as="geometry">
            <mxPoint x="190" y="20" as="sourcePoint" />
            <mxPoint x="240" y="120" as="targetPoint" />
          </mxGeometry>
        </mxCell>
        <mxCell id="QqgvHTSZ75dJSmDRe_ZE-8" value="" style="endArrow=classic;html=1;rounded=0;entryX=0.006;entryY=0.404;entryDx=0;entryDy=0;entryPerimeter=0;strokeColor=#808080;" parent="QqgvHTSZ75dJSmDRe_ZE-1" source="QqgvHTSZ75dJSmDRe_ZE-11" target="QqgvHTSZ75dJSmDRe_ZE-2" edge="1">
          <mxGeometry width="50" height="50" relative="1" as="geometry">
            <mxPoint x="200" y="270" as="sourcePoint" />
            <mxPoint x="198" y="129" as="targetPoint" />
          </mxGeometry>
        </mxCell>
        <mxCell id="QqgvHTSZ75dJSmDRe_ZE-9" value="planet&amp;nbsp; in $$\theta_{p1}, r_{p1}, z_{p1}&lt;br&gt;$$" style="text;html=1;strokeColor=none;fillColor=none;align=center;verticalAlign=middle;whiteSpace=wrap;rounded=0;fontColor=#808080;" parent="QqgvHTSZ75dJSmDRe_ZE-1" vertex="1">
          <mxGeometry x="270" y="79" width="70" height="55" as="geometry" />
        </mxCell>
        <mxCell id="QqgvHTSZ75dJSmDRe_ZE-10" value="IN: sun $$\theta_s, r_s, z_s$$" style="text;html=1;strokeColor=none;fillColor=none;align=center;verticalAlign=middle;whiteSpace=wrap;rounded=0;fontColor=#B3FF66;" parent="QqgvHTSZ75dJSmDRe_ZE-1" vertex="1">
          <mxGeometry x="220" y="18" width="60" height="55" as="geometry" />
        </mxCell>
        <mxCell id="QqgvHTSZ75dJSmDRe_ZE-11" value="crown in $$\theta_{e1}, r_{e1}, z_{e1}$$" style="text;html=1;strokeColor=none;fillColor=none;align=center;verticalAlign=middle;whiteSpace=wrap;rounded=0;fontColor=#808080;" parent="QqgvHTSZ75dJSmDRe_ZE-1" vertex="1">
          <mxGeometry x="-64.63" y="79" width="78" height="55" as="geometry" />
        </mxCell>
        <mxCell id="QqgvHTSZ75dJSmDRe_ZE-12" value="" style="ellipse;whiteSpace=wrap;html=1;aspect=fixed;strokeColor=#808080;container=0;" parent="QqgvHTSZ75dJSmDRe_ZE-1" vertex="1">
          <mxGeometry x="80" y="170" width="50" height="50" as="geometry" />
        </mxCell>
        <mxCell id="QqgvHTSZ75dJSmDRe_ZE-13" value="" style="ellipse;whiteSpace=wrap;html=1;aspect=fixed;fillColor=none;strokeColor=#FFFFFF;" parent="QqgvHTSZ75dJSmDRe_ZE-1" vertex="1">
          <mxGeometry x="75" y="75" width="130" height="130" as="geometry" />
        </mxCell>
        <mxCell id="QqgvHTSZ75dJSmDRe_ZE-14" value="" style="ellipse;whiteSpace=wrap;html=1;aspect=fixed;strokeColor=#FFFFFF;" parent="QqgvHTSZ75dJSmDRe_ZE-1" vertex="1">
          <mxGeometry x="99" y="79" width="12" height="12" as="geometry" />
        </mxCell>
        <mxCell id="QqgvHTSZ75dJSmDRe_ZE-15" value="" style="ellipse;whiteSpace=wrap;html=1;aspect=fixed;strokeColor=#FFFFFF;" parent="QqgvHTSZ75dJSmDRe_ZE-1" vertex="1">
          <mxGeometry x="99" y="189" width="12" height="12" as="geometry" />
        </mxCell>
        <mxCell id="QqgvHTSZ75dJSmDRe_ZE-16" value="" style="ellipse;whiteSpace=wrap;html=1;aspect=fixed;strokeColor=#FFFFFF;" parent="QqgvHTSZ75dJSmDRe_ZE-1" vertex="1">
          <mxGeometry x="199" y="134" width="12" height="12" as="geometry" />
        </mxCell>
        <mxCell id="QqgvHTSZ75dJSmDRe_ZE-18" value="carrier $$\theta_c, r_c$$" style="text;html=1;strokeColor=none;fillColor=none;align=center;verticalAlign=middle;whiteSpace=wrap;rounded=0;fontColor=#FFFFFF;" parent="QqgvHTSZ75dJSmDRe_ZE-1" vertex="1">
          <mxGeometry x="223.5" y="220" width="53" height="55" as="geometry" />
        </mxCell>
        <mxCell id="q3EgtY3hpRnF0Ry7mzBB-1" value="" style="ellipse;whiteSpace=wrap;html=1;aspect=fixed;strokeColor=#FFFFFF;container=0;fillColor=none;" parent="QqgvHTSZ75dJSmDRe_ZE-1" vertex="1">
          <mxGeometry x="71.25" y="51.25" width="67.5" height="67.5" as="geometry" />
        </mxCell>
        <mxCell id="q3EgtY3hpRnF0Ry7mzBB-2" value="" style="ellipse;whiteSpace=wrap;html=1;aspect=fixed;strokeColor=#FFFFFF;container=0;fillColor=none;" parent="QqgvHTSZ75dJSmDRe_ZE-1" vertex="1">
          <mxGeometry x="71.25" y="161.25" width="67.5" height="67.5" as="geometry" />
        </mxCell>
        <mxCell id="q3EgtY3hpRnF0Ry7mzBB-3" value="" style="ellipse;whiteSpace=wrap;html=1;aspect=fixed;strokeColor=#FFFFFF;container=0;fillColor=none;" parent="QqgvHTSZ75dJSmDRe_ZE-1" vertex="1">
          <mxGeometry x="171.25" y="106.25" width="67.5" height="67.5" as="geometry" />
        </mxCell>
        <mxCell id="CBP_VhM4lVc0oQaNC-N2-0" value="planet&amp;nbsp; out$$\theta_{p2}, r_{p2}, z_{p2}&lt;br&gt;$$" style="text;html=1;strokeColor=none;fillColor=none;align=center;verticalAlign=middle;whiteSpace=wrap;rounded=0;fontColor=#FFFFFF;" parent="QqgvHTSZ75dJSmDRe_ZE-1" vertex="1">
          <mxGeometry x="270" y="150" width="70" height="55" as="geometry" />
        </mxCell>
        <mxCell id="CBP_VhM4lVc0oQaNC-N2-1" value="OUT: crown out $$\theta_{e2}, r_{e2}, z_{e2}$$" style="text;html=1;strokeColor=none;fillColor=none;align=center;verticalAlign=middle;whiteSpace=wrap;rounded=0;fontColor=#B3FF66;" parent="QqgvHTSZ75dJSmDRe_ZE-1" vertex="1">
          <mxGeometry x="-80" y="150" width="88.75" height="55" as="geometry" />
        </mxCell>
        <mxCell id="CBP_VhM4lVc0oQaNC-N2-2" value="" style="endArrow=classic;html=1;rounded=0;entryX=0.007;entryY=0.602;entryDx=0;entryDy=0;entryPerimeter=0;fontColor=#B3FF66;strokeColor=#B3FF66;" parent="QqgvHTSZ75dJSmDRe_ZE-1" source="CBP_VhM4lVc0oQaNC-N2-1" target="q3EgtY3hpRnF0Ry7mzBB-0" edge="1">
          <mxGeometry width="50" height="50" relative="1" as="geometry">
            <mxPoint x="242" y="248" as="sourcePoint" />
            <mxPoint x="208" y="219" as="targetPoint" />
          </mxGeometry>
        </mxCell>
        <mxCell id="CBP_VhM4lVc0oQaNC-N2-3" value="" style="endArrow=classic;html=1;rounded=0;entryX=0.946;entryY=0.726;entryDx=0;entryDy=0;entryPerimeter=0;" parent="QqgvHTSZ75dJSmDRe_ZE-1" source="CBP_VhM4lVc0oQaNC-N2-0" target="q3EgtY3hpRnF0Ry7mzBB-3" edge="1">
          <mxGeometry width="50" height="50" relative="1" as="geometry">
            <mxPoint x="252" y="258" as="sourcePoint" />
            <mxPoint x="218" y="229" as="targetPoint" />
          </mxGeometry>
        </mxCell>
        <mxCell id="CBP_VhM4lVc0oQaNC-N2-4" value="" style="endArrow=classic;html=1;rounded=0;entryX=1;entryY=1;entryDx=0;entryDy=0;" parent="QqgvHTSZ75dJSmDRe_ZE-1" source="QqgvHTSZ75dJSmDRe_ZE-18" target="QqgvHTSZ75dJSmDRe_ZE-13" edge="1">
          <mxGeometry width="50" height="50" relative="1" as="geometry">
            <mxPoint x="280" y="176" as="sourcePoint" />
            <mxPoint x="245" y="165" as="targetPoint" />
          </mxGeometry>
        </mxCell>
      </root>
    </mxGraphModel>
  </diagram>
  <diagram name="shifted-planetary" id="24uYPmwfLzLKF80supIg">
    <mxGraphModel dx="842" dy="323" grid="0" gridSize="10" guides="1" tooltips="1" connect="1" arrows="1" fold="1" page="1" pageScale="1" pageWidth="413" pageHeight="291" math="1" shadow="0">
      <root>
        <mxCell id="HgaaKUrJpPF7tNZCSnNN-0" />
        <mxCell id="HgaaKUrJpPF7tNZCSnNN-1" parent="HgaaKUrJpPF7tNZCSnNN-0" />
        <mxCell id="HgaaKUrJpPF7tNZCSnNN-2" value="" style="endArrow=none;html=1;rounded=0;exitX=0.5;exitY=1;exitDx=0;exitDy=0;strokeColor=#808080;" edge="1" parent="HgaaKUrJpPF7tNZCSnNN-1">
          <mxGeometry width="50" height="50" relative="1" as="geometry">
            <mxPoint x="141.25" y="230" as="sourcePoint" />
            <mxPoint x="141.25" y="250" as="targetPoint" />
          </mxGeometry>
        </mxCell>
        <mxCell id="HgaaKUrJpPF7tNZCSnNN-3" value="" style="endArrow=none;html=1;rounded=0;strokeColor=#808080;" edge="1" parent="HgaaKUrJpPF7tNZCSnNN-1">
          <mxGeometry width="50" height="50" relative="1" as="geometry">
            <mxPoint x="111.25" y="250" as="sourcePoint" />
            <mxPoint x="171.25" y="250" as="targetPoint" />
          </mxGeometry>
        </mxCell>
        <mxCell id="HgaaKUrJpPF7tNZCSnNN-4" value="" style="ellipse;whiteSpace=wrap;html=1;aspect=fixed;fillColor=none;strokeColor=#B3FF66;" vertex="1" parent="HgaaKUrJpPF7tNZCSnNN-1">
          <mxGeometry x="40" y="40" width="200" height="200" as="geometry" />
        </mxCell>
        <mxCell id="HgaaKUrJpPF7tNZCSnNN-5" value="" style="ellipse;whiteSpace=wrap;html=1;aspect=fixed;fillColor=none;strokeColor=#808080;" vertex="1" parent="HgaaKUrJpPF7tNZCSnNN-1">
          <mxGeometry x="50" y="50" width="180" height="180" as="geometry" />
        </mxCell>
        <mxCell id="HgaaKUrJpPF7tNZCSnNN-6" value="" style="ellipse;whiteSpace=wrap;html=1;aspect=fixed;strokeColor=#808080;container=0;" vertex="1" parent="HgaaKUrJpPF7tNZCSnNN-1">
          <mxGeometry x="80" y="60" width="50" height="50" as="geometry" />
        </mxCell>
        <mxCell id="HgaaKUrJpPF7tNZCSnNN-7" value="" style="ellipse;whiteSpace=wrap;html=1;aspect=fixed;strokeColor=#808080;fontColor=none;noLabel=1;" vertex="1" parent="HgaaKUrJpPF7tNZCSnNN-1">
          <mxGeometry x="180" y="115" width="50" height="50" as="geometry" />
        </mxCell>
        <mxCell id="HgaaKUrJpPF7tNZCSnNN-8" value="" style="ellipse;whiteSpace=wrap;html=1;aspect=fixed;fillColor=none;strokeColor=#B3FF66;" vertex="1" parent="HgaaKUrJpPF7tNZCSnNN-1">
          <mxGeometry x="100" y="100" width="80" height="80" as="geometry" />
        </mxCell>
        <mxCell id="HgaaKUrJpPF7tNZCSnNN-9" value="" style="endArrow=classic;html=1;rounded=0;strokeColor=#808080;" edge="1" parent="HgaaKUrJpPF7tNZCSnNN-1" source="HgaaKUrJpPF7tNZCSnNN-12" target="HgaaKUrJpPF7tNZCSnNN-7">
          <mxGeometry width="50" height="50" relative="1" as="geometry">
            <mxPoint x="280" y="140" as="sourcePoint" />
            <mxPoint x="229.9749999999999" y="130.01000000000005" as="targetPoint" />
          </mxGeometry>
        </mxCell>
        <mxCell id="HgaaKUrJpPF7tNZCSnNN-10" value="" style="endArrow=classic;html=1;rounded=0;entryX=0.798;entryY=0.107;entryDx=0;entryDy=0;entryPerimeter=0;exitX=-0.018;exitY=0.439;exitDx=0;exitDy=0;exitPerimeter=0;strokeColor=#B3FF66;" edge="1" parent="HgaaKUrJpPF7tNZCSnNN-1" source="HgaaKUrJpPF7tNZCSnNN-13" target="HgaaKUrJpPF7tNZCSnNN-8">
          <mxGeometry width="50" height="50" relative="1" as="geometry">
            <mxPoint x="190" y="20" as="sourcePoint" />
            <mxPoint x="240" y="120" as="targetPoint" />
          </mxGeometry>
        </mxCell>
        <mxCell id="HgaaKUrJpPF7tNZCSnNN-11" value="" style="endArrow=classic;html=1;rounded=0;entryX=0.006;entryY=0.404;entryDx=0;entryDy=0;entryPerimeter=0;strokeColor=#808080;" edge="1" parent="HgaaKUrJpPF7tNZCSnNN-1" source="HgaaKUrJpPF7tNZCSnNN-14" target="HgaaKUrJpPF7tNZCSnNN-5">
          <mxGeometry width="50" height="50" relative="1" as="geometry">
            <mxPoint x="200" y="270" as="sourcePoint" />
            <mxPoint x="198" y="129" as="targetPoint" />
          </mxGeometry>
        </mxCell>
        <mxCell id="HgaaKUrJpPF7tNZCSnNN-12" value="planet&amp;nbsp; in $$\theta_{p1}, r_{p1}, z_{p1}&lt;br&gt;$$" style="text;html=1;strokeColor=none;fillColor=none;align=center;verticalAlign=middle;whiteSpace=wrap;rounded=0;fontColor=#808080;" vertex="1" parent="HgaaKUrJpPF7tNZCSnNN-1">
          <mxGeometry x="270" y="79" width="70" height="55" as="geometry" />
        </mxCell>
        <mxCell id="HgaaKUrJpPF7tNZCSnNN-13" value="IN: sun $$\theta_s, r_s, z_s$$" style="text;html=1;strokeColor=none;fillColor=none;align=center;verticalAlign=middle;whiteSpace=wrap;rounded=0;fontColor=#B3FF66;" vertex="1" parent="HgaaKUrJpPF7tNZCSnNN-1">
          <mxGeometry x="220" y="18" width="60" height="55" as="geometry" />
        </mxCell>
        <mxCell id="HgaaKUrJpPF7tNZCSnNN-14" value="crown in $$\theta_{e1}, r_{e1}, z_{e1}$$" style="text;html=1;strokeColor=none;fillColor=none;align=center;verticalAlign=middle;whiteSpace=wrap;rounded=0;fontColor=#808080;" vertex="1" parent="HgaaKUrJpPF7tNZCSnNN-1">
          <mxGeometry x="-64.63" y="79" width="78" height="55" as="geometry" />
        </mxCell>
        <mxCell id="HgaaKUrJpPF7tNZCSnNN-15" value="" style="ellipse;whiteSpace=wrap;html=1;aspect=fixed;strokeColor=#808080;container=0;" vertex="1" parent="HgaaKUrJpPF7tNZCSnNN-1">
          <mxGeometry x="80" y="170" width="50" height="50" as="geometry" />
        </mxCell>
        <mxCell id="HgaaKUrJpPF7tNZCSnNN-16" value="" style="ellipse;whiteSpace=wrap;html=1;aspect=fixed;fillColor=none;strokeColor=#FFFFFF;" vertex="1" parent="HgaaKUrJpPF7tNZCSnNN-1">
          <mxGeometry x="75" y="75" width="130" height="130" as="geometry" />
        </mxCell>
        <mxCell id="HgaaKUrJpPF7tNZCSnNN-17" value="" style="ellipse;whiteSpace=wrap;html=1;aspect=fixed;strokeColor=#FFFFFF;" vertex="1" parent="HgaaKUrJpPF7tNZCSnNN-1">
          <mxGeometry x="99" y="79" width="12" height="12" as="geometry" />
        </mxCell>
        <mxCell id="HgaaKUrJpPF7tNZCSnNN-18" value="" style="ellipse;whiteSpace=wrap;html=1;aspect=fixed;strokeColor=#FFFFFF;" vertex="1" parent="HgaaKUrJpPF7tNZCSnNN-1">
          <mxGeometry x="99" y="189" width="12" height="12" as="geometry" />
        </mxCell>
        <mxCell id="HgaaKUrJpPF7tNZCSnNN-19" value="" style="ellipse;whiteSpace=wrap;html=1;aspect=fixed;strokeColor=#FFFFFF;" vertex="1" parent="HgaaKUrJpPF7tNZCSnNN-1">
          <mxGeometry x="199" y="134" width="12" height="12" as="geometry" />
        </mxCell>
        <mxCell id="HgaaKUrJpPF7tNZCSnNN-20" value="carrier $$\theta_c, r_c$$" style="text;html=1;strokeColor=none;fillColor=none;align=center;verticalAlign=middle;whiteSpace=wrap;rounded=0;fontColor=#FFFFFF;" vertex="1" parent="HgaaKUrJpPF7tNZCSnNN-1">
          <mxGeometry x="223.5" y="220" width="53" height="55" as="geometry" />
        </mxCell>
        <mxCell id="HgaaKUrJpPF7tNZCSnNN-22" value="" style="ellipse;whiteSpace=wrap;html=1;aspect=fixed;strokeColor=#FFFFFF;container=0;fillColor=none;" vertex="1" parent="HgaaKUrJpPF7tNZCSnNN-1">
          <mxGeometry x="44" y="138" width="48.75" height="48.75" as="geometry" />
        </mxCell>
        <mxCell id="HgaaKUrJpPF7tNZCSnNN-24" value="planet&amp;nbsp; out$$\theta_{p2}, r_{p2}, z_{p2}&lt;br&gt;$$" style="text;html=1;strokeColor=none;fillColor=none;align=center;verticalAlign=middle;whiteSpace=wrap;rounded=0;fontColor=#FFFFFF;" vertex="1" parent="HgaaKUrJpPF7tNZCSnNN-1">
          <mxGeometry x="270" y="150" width="70" height="55" as="geometry" />
        </mxCell>
        <mxCell id="HgaaKUrJpPF7tNZCSnNN-25" value="OUT: crown out $$\theta_{e2}, r_{e2}, z_{e2}$$" style="text;html=1;strokeColor=none;fillColor=none;align=center;verticalAlign=middle;whiteSpace=wrap;rounded=0;fontColor=#B3FF66;" vertex="1" parent="HgaaKUrJpPF7tNZCSnNN-1">
          <mxGeometry x="-80" y="150" width="88.75" height="55" as="geometry" />
        </mxCell>
        <mxCell id="HgaaKUrJpPF7tNZCSnNN-26" value="" style="endArrow=classic;html=1;rounded=0;entryX=0.007;entryY=0.602;entryDx=0;entryDy=0;entryPerimeter=0;fontColor=#B3FF66;strokeColor=#B3FF66;" edge="1" parent="HgaaKUrJpPF7tNZCSnNN-1" source="HgaaKUrJpPF7tNZCSnNN-25" target="HgaaKUrJpPF7tNZCSnNN-4">
          <mxGeometry width="50" height="50" relative="1" as="geometry">
            <mxPoint x="242" y="248" as="sourcePoint" />
            <mxPoint x="208" y="219" as="targetPoint" />
          </mxGeometry>
        </mxCell>
        <mxCell id="HgaaKUrJpPF7tNZCSnNN-27" value="" style="endArrow=classic;html=1;rounded=0;" edge="1" parent="HgaaKUrJpPF7tNZCSnNN-1" source="HgaaKUrJpPF7tNZCSnNN-24" target="wAtn7avNaLgsRSijp1uf-0">
          <mxGeometry width="50" height="50" relative="1" as="geometry">
            <mxPoint x="252" y="258" as="sourcePoint" />
            <mxPoint x="235.10500000000002" y="155.255" as="targetPoint" />
          </mxGeometry>
        </mxCell>
        <mxCell id="HgaaKUrJpPF7tNZCSnNN-28" value="" style="endArrow=classic;html=1;rounded=0;entryX=1;entryY=1;entryDx=0;entryDy=0;" edge="1" parent="HgaaKUrJpPF7tNZCSnNN-1" source="HgaaKUrJpPF7tNZCSnNN-20" target="HgaaKUrJpPF7tNZCSnNN-16">
          <mxGeometry width="50" height="50" relative="1" as="geometry">
            <mxPoint x="280" y="176" as="sourcePoint" />
            <mxPoint x="245" y="165" as="targetPoint" />
          </mxGeometry>
        </mxCell>
        <mxCell id="wAtn7avNaLgsRSijp1uf-0" value="" style="ellipse;whiteSpace=wrap;html=1;aspect=fixed;strokeColor=#FFFFFF;container=0;fillColor=none;" vertex="1" parent="HgaaKUrJpPF7tNZCSnNN-1">
          <mxGeometry x="173.75" y="164" width="48.75" height="48.75" as="geometry" />
        </mxCell>
        <mxCell id="wAtn7avNaLgsRSijp1uf-1" value="" style="ellipse;whiteSpace=wrap;html=1;aspect=fixed;strokeColor=#FFFFFF;container=0;fillColor=none;" vertex="1" parent="HgaaKUrJpPF7tNZCSnNN-1">
          <mxGeometry x="126" y="41" width="48.75" height="48.75" as="geometry" />
        </mxCell>
        <mxCell id="wAtn7avNaLgsRSijp1uf-2" value="" style="ellipse;whiteSpace=wrap;html=1;aspect=fixed;strokeColor=#FFFFFF;" vertex="1" parent="HgaaKUrJpPF7tNZCSnNN-1">
          <mxGeometry x="62.38" y="156.38" width="12" height="12" as="geometry" />
        </mxCell>
        <mxCell id="wAtn7avNaLgsRSijp1uf-3" value="" style="ellipse;whiteSpace=wrap;html=1;aspect=fixed;strokeColor=#FFFFFF;" vertex="1" parent="HgaaKUrJpPF7tNZCSnNN-1">
          <mxGeometry x="192.13" y="182.38" width="12" height="12" as="geometry" />
        </mxCell>
        <mxCell id="wAtn7avNaLgsRSijp1uf-4" value="" style="ellipse;whiteSpace=wrap;html=1;aspect=fixed;strokeColor=#FFFFFF;" vertex="1" parent="HgaaKUrJpPF7tNZCSnNN-1">
          <mxGeometry x="144.37" y="59.379999999999995" width="12" height="12" as="geometry" />
        </mxCell>
        <mxCell id="wAtn7avNaLgsRSijp1uf-6" value="" style="endArrow=none;html=1;rounded=0;" edge="1" parent="HgaaKUrJpPF7tNZCSnNN-1" source="HgaaKUrJpPF7tNZCSnNN-16" target="wAtn7avNaLgsRSijp1uf-2">
          <mxGeometry width="50" height="50" relative="1" as="geometry">
            <mxPoint x="92" y="181" as="sourcePoint" />
            <mxPoint x="142" y="131" as="targetPoint" />
          </mxGeometry>
        </mxCell>
        <mxCell id="wAtn7avNaLgsRSijp1uf-7" value="" style="endArrow=none;html=1;rounded=0;" edge="1" parent="HgaaKUrJpPF7tNZCSnNN-1" source="wAtn7avNaLgsRSijp1uf-3" target="HgaaKUrJpPF7tNZCSnNN-16">
          <mxGeometry width="50" height="50" relative="1" as="geometry">
            <mxPoint x="92" y="181" as="sourcePoint" />
            <mxPoint x="142" y="131" as="targetPoint" />
          </mxGeometry>
        </mxCell>
        <mxCell id="wAtn7avNaLgsRSijp1uf-8" value="" style="endArrow=none;html=1;rounded=0;" edge="1" parent="HgaaKUrJpPF7tNZCSnNN-1" source="HgaaKUrJpPF7tNZCSnNN-16" target="wAtn7avNaLgsRSijp1uf-4">
          <mxGeometry width="50" height="50" relative="1" as="geometry">
            <mxPoint x="92" y="181" as="sourcePoint" />
            <mxPoint x="142" y="131" as="targetPoint" />
          </mxGeometry>
        </mxCell>
      </root>
    </mxGraphModel>
  </diagram>
</mxfile>
